# xmcd
# Copyright (C) 1995-1998 Ti Kan
#
# Track frame offsets:
#       150
#       13948
#       28280
#       41638
#       49859
#       59467
#
# Disc length: 935 seconds
#
# Revision: 0
# Processed by: cddbd v1.5.2PL0 Copyright (c) Steve Scherf et al.
# Submitted via: CD-Transfer v1.0
#
DISCID=5203a506
DTITLE=Sandy Summer - Promo Cd
DYEAR=05
DGENRE=
TTITLE0=Gold Von Den Sternen
TTITLE1=Someone Like You
TTITLE2=A Bit Or Earth
TTITLE3=Can't Help Lovin' Dat Man
TTITLE4=Er Violà Qu'elle Aime
TTITLE5=God Help The Outcasts
EXTD=
EXTT0=
EXTT1=
EXTT2=
EXTT3=
EXTT4=
EXTT5=
PLAYORDER=
